<?xml version="1.0" encoding="utf-8"?>
<!-- Generator: Adobe Illustrator 25.3.1, SVG Export Plug-In . SVG Version: 6.00 Build 0)  -->
<svg version="1.1" id="Layer_1" xmlns="http://www.w3.org/2000/svg" xmlns:xlink="http://www.w3.org/1999/xlink" x="0px" y="0px"
	 viewBox="0 0 24 24" style="enable-background:new 0 0 24 24;" xml:space="preserve">
<style type="text/css">
	.st0{display:none;}
	.st1{fill:none;}
	.st2{fill:#ffffff;}
</style>
<rect class="st0" width="24" height="24"/>
<g>
	<path class="st1" d="M11.6,14c-0.6,0.1-1,0.5-1.3,1c-0.5,1-0.2,2.2,0.7,2.7V20h2v-2.3c0.6-0.4,1-1,1-1.7c0-0.1,0-0.3,0-0.4
		C13.7,14.5,12.6,13.8,11.6,14z"/>
	<path class="st2" d="M18,10H9V7c0-1.7,1.3-3,3-3s3,1.3,3,3h2c0-2.8-2.2-5-5-5S7,4.2,7,7v3H6c-1.1,0-2,0.9-2,2v8c0,1.1,0.9,2,2,2h12
		c1.1,0,2-0.9,2-2v-8C20,10.9,19.1,10,18,10z M13,17.7V20h-2v-2.3c-1-0.5-1.3-1.8-0.7-2.7c0.3-0.5,0.8-0.8,1.3-1
		c1.1-0.2,2.1,0.4,2.4,1.5c0,0.1,0,0.3,0,0.4C14,16.7,13.6,17.4,13,17.7z"/>
</g>
</svg>
